<svg xmlns="http://www.w3.org/2000/svg" viewBox="0 0 512 512">
  <rect width="512" height="512" rx="64" fill="#0f172a"/>

  <!-- Left lens — outer frame with rounded corners -->
  <rect x="72" y="188" width="160" height="136" rx="16" fill="#38bdf8"/>
  <!-- Left lens — inner cutout -->
  <rect x="88" y="204" width="128" height="104" rx="8" fill="#0f172a"/>

  <!-- Right lens — outer frame with rounded corners -->
  <rect x="280" y="188" width="160" height="136" rx="16" fill="#38bdf8"/>
  <!-- Right lens — inner cutout -->
  <rect x="296" y="204" width="128" height="104" rx="8" fill="#0f172a"/>

  <!-- Bridge — curved arc connecting lenses -->
  <path d="M232 240 Q256 218 280 240 L280 254 Q256 234 232 254Z" fill="#38bdf8"/>

  <!-- Left temple arm — angled with slight taper -->
  <path d="M72 244 L28 228 Q24 226 24 232 L24 240 Q24 244 28 244 L72 258Z" fill="#38bdf8"/>

  <!-- Right temple arm — angled with slight taper -->
  <path d="M440 244 L484 228 Q488 226 488 232 L488 240 Q488 244 484 244 L440 258Z" fill="#38bdf8"/>
</svg>
